<svg xmlns="http://www.w3.org/2000/svg" fill="none" viewBox="0 0 24 24"><path fill="currentColor" d="M16.175 13H5a.967.967 0 0 1-.713-.287A.968.968 0 0 1 4 12c0-.283.096-.52.287-.712A.967.967 0 0 1 5 11h11.175l-4.9-4.9a.916.916 0 0 1-.287-.7c.008-.267.112-.5.312-.7.2-.183.433-.28.7-.287.267-.009.5.087.7.287l6.6 6.6c.1.1.17.208.212.325.042.117.063.242.063.375s-.02.258-.063.375a.877.877 0 0 1-.212.325l-6.6 6.6a.933.933 0 0 1-.688.275c-.274 0-.512-.092-.712-.275-.2-.2-.3-.437-.3-.712 0-.275.1-.513.3-.713L16.175 13Z"/></svg>