<svg xmlns="http://www.w3.org/2000/svg" fill="none" viewBox="0 0 24 24"><path fill="currentColor" d="m11 7.825-4.9 4.9c-.2.2-.433.296-.7.287a1.006 1.006 0 0 1-.7-.312c-.183-.2-.28-.433-.287-.7a.916.916 0 0 1 .287-.7l6.6-6.6c.1-.1.208-.17.325-.212.117-.042.242-.063.375-.063s.258.02.375.063a.877.877 0 0 1 .325.212l6.6 6.6a.933.933 0 0 1 .275.688c0 .274-.092.512-.275.712-.2.2-.437.3-.712.3a.973.973 0 0 1-.713-.3L13 7.825V19c0 .283-.096.52-.287.712A.968.968 0 0 1 12 20a.968.968 0 0 1-.712-.288A.967.967 0 0 1 11 19V7.825Z"/></svg>