<svg xmlns="http://www.w3.org/2000/svg" fill="none" viewBox="0 0 24 24">
    <path fill="currentColor" d="M2 19v-6q0-.675.275-1.225T3 10.8V8q0-1.25.875-2.125A2.9 2.9 0 0 1 6 5h4q.575 0 1.075.213.5.212.925.587.425-.375.925-.587A2.7 2.7 0 0 1 14 5h4q1.25 0 2.125.875T21 8v2.8q.45.425.725.975T22 13v6h-2v-2H4v2zm11-9h6V8a.97.97 0 0 0-.288-.713A.97.97 0 0 0 18 7h-4a.97.97 0 0 0-.713.287A.97.97 0 0 0 13 8zm-8 0h6V8a.97.97 0 0 0-.287-.713A.97.97 0 0 0 10 7H6a.97.97 0 0 0-.713.287A.97.97 0 0 0 5 8zm-1 5h16v-2a.97.97 0 0 0-.288-.713A.97.97 0 0 0 19 12H5a.97.97 0 0 0-.713.287A.97.97 0 0 0 4 13z"/>
</svg>
