<svg xmlns="http://www.w3.org/2000/svg" fill="none" viewBox="0 0 24 24">
    <path fill="currentColor" d="M12 12q-1.275 0-2.137-.863Q9 10.276 9 9q0-1.25.863-2.125Q10.725 6 12 6q1.25 0 2.125.875T15 9q0 1.275-.875 2.137T12 12m0-2q.424 0 .713-.287A.97.97 0 0 0 13 9a.97.97 0 0 0-.287-.713A.97.97 0 0 0 12 8a.97.97 0 0 0-.713.287A.97.97 0 0 0 11 9q0 .424.287.713.288.287.713.287m-6 7v-.9q0-.525.263-.988.262-.462.712-.737 1.15-.675 2.412-1.025A9.7 9.7 0 0 1 12 13q1.35 0 2.613.35 1.261.35 2.412 1.025.45.275.713.738T18 16.1v.9q0 .424-.288.712A.97.97 0 0 1 17 18H7a.97.97 0 0 1-.713-.288A.97.97 0 0 1 6 17m6-2q-1.025 0-2 .25a7.4 7.4 0 0 0-1.85.75h7.7a7.4 7.4 0 0 0-1.85-.75 8 8 0 0 0-2-.25m0 1h3.85-7.7zm-8 6q-.824 0-1.412-.587A1.93 1.93 0 0 1 2 20v-3q0-.424.288-.712A.97.97 0 0 1 3 16q.424 0 .712.288Q4 16.575 4 17v3h3q.424 0 .713.288Q8 20.575 8 21q0 .424-.287.712A.97.97 0 0 1 7 22zM2 7V4q0-.824.587-1.412A1.93 1.93 0 0 1 4 2h3q.424 0 .713.288Q8 2.575 8 3q0 .424-.287.712A.97.97 0 0 1 7 4H4v3q0 .424-.288.713A.97.97 0 0 1 3 8a.97.97 0 0 1-.712-.287A.97.97 0 0 1 2 7m18 15h-3a.97.97 0 0 1-.712-.288A.97.97 0 0 1 16 21q0-.424.288-.712A.97.97 0 0 1 17 20h3v-3q0-.424.288-.712A.97.97 0 0 1 21 16q.424 0 .712.288.288.287.288.712v3q0 .824-.587 1.413A1.93 1.93 0 0 1 20 22m0-15V4h-3a.97.97 0 0 1-.712-.288A.97.97 0 0 1 16 3q0-.424.288-.712A.97.97 0 0 1 17 2h3q.824 0 1.413.587Q22 3.176 22 4v3q0 .424-.288.713A.97.97 0 0 1 21 8a.97.97 0 0 1-.712-.287A.97.97 0 0 1 20 7"/>
</svg>
