<svg xmlns="http://www.w3.org/2000/svg" fill="none" viewBox="0 0 24 24">
    <path fill="currentColor" d="M8 21a.97.97 0 0 1-.713-.288A.97.97 0 0 1 7 20v-3h10v3q0 .424-.288.712A.97.97 0 0 1 16 21zM19 8v3q0 .075-.05.2L18.2 15q-.075.45-.412.725A1.2 1.2 0 0 1 17 16H7q-.45 0-.787-.275A1.15 1.15 0 0 1 5.8 15l-.75-3.8A.6.6 0 0 1 5 11V5q0-.824.588-1.412A1.93 1.93 0 0 1 7 3h8q.824 0 1.413.587Q17 4.176 17 5v3q0-.424.288-.713A.97.97 0 0 1 18 7q.424 0 .712.287Q19 7.576 19 8M7.65 14h8.7l.65-3.4V10h-2V5H7v5.6zM8 10h6V7H8z"/>
</svg>
