<svg xmlns="http://www.w3.org/2000/svg" fill="none" viewBox="0 0 24 24"><path fill="#1C1B1F" d="M3 18c-.55 0-1.02-.196-1.413-.587A1.926 1.926 0 0 1 1 16c0-.55.196-1.02.587-1.412A1.926 1.926 0 0 1 3 14h.263a.64.64 0 0 1 .237.05L8.05 9.5A.64.64 0 0 1 8 9.262V9c0-.55.196-1.02.588-1.412A1.926 1.926 0 0 1 10 7c.55 0 1.02.196 1.412.588.392.391.588.862.588 1.412 0 .033-.017.2-.05.5l2.55 2.55a.64.64 0 0 1 .238-.05h.524a.64.64 0 0 1 .238.05l3.55-3.55a.64.64 0 0 1-.05-.238V8c0-.55.196-1.02.587-1.412A1.926 1.926 0 0 1 21 6c.55 0 1.02.196 1.413.588.391.391.587.862.587 1.412 0 .55-.196 1.02-.587 1.412A1.926 1.926 0 0 1 21 10h-.262a.64.64 0 0 1-.238-.05l-3.55 3.55a.64.64 0 0 1 .05.238V14c0 .55-.196 1.02-.587 1.412A1.926 1.926 0 0 1 15 16c-.55 0-1.02-.196-1.412-.588A1.926 1.926 0 0 1 13 14v-.262a.64.64 0 0 1 .05-.238l-2.55-2.55a.64.64 0 0 1-.238.05H10c-.033 0-.2-.017-.5-.05L4.95 15.5a.64.64 0 0 1 .05.238V16c0 .55-.196 1.02-.588 1.413A1.926 1.926 0 0 1 3 18Z"/></svg>