<svg xmlns="http://www.w3.org/2000/svg" fill="none" viewBox="0 0 24 24"><path fill="#1C1B1F" d="M15 19v-1h-2c-.55 0-1.02-.196-1.412-.587A1.926 1.926 0 0 1 11 16V8H9v1c0 .55-.196 1.02-.588 1.412A1.926 1.926 0 0 1 7 11H4c-.55 0-1.02-.196-1.413-.588A1.926 1.926 0 0 1 2 9V5c0-.55.196-1.02.587-1.413A1.926 1.926 0 0 1 4 3h3c.55 0 1.02.196 1.412.587C8.804 3.98 9 4.45 9 5v1h6V5c0-.55.196-1.02.588-1.413A1.926 1.926 0 0 1 17 3h3c.55 0 1.02.196 1.413.587C21.803 3.98 22 4.45 22 5v4c0 .55-.196 1.02-.587 1.412A1.926 1.926 0 0 1 20 11h-3c-.55 0-1.02-.196-1.412-.588A1.926 1.926 0 0 1 15 9V8h-2v8h2v-1c0-.55.196-1.02.588-1.412A1.926 1.926 0 0 1 17 13h3c.55 0 1.02.196 1.413.588.391.391.587.862.587 1.412v4c0 .55-.196 1.02-.587 1.413A1.926 1.926 0 0 1 20 21h-3c-.55 0-1.02-.196-1.412-.587A1.926 1.926 0 0 1 15 19Zm2-10h3V5h-3v4Zm0 10h3v-4h-3v4ZM4 9h3V5H4v4Z"/></svg>