<svg xmlns="http://www.w3.org/2000/svg" fill="none" viewBox="0 0 24 24">
    <path fill="currentColor" d="M5 21q-.824 0-1.412-.587A1.93 1.93 0 0 1 3 19v-3q0-.424.288-.713A.97.97 0 0 1 4 15q.424 0 .713.287Q5 15.576 5 16v3h3q.424 0 .713.288Q9 19.575 9 20q0 .424-.287.712A.97.97 0 0 1 8 21zm14 0h-3a.97.97 0 0 1-.713-.288A.97.97 0 0 1 15 20q0-.424.287-.712A.97.97 0 0 1 16 19h3v-3q0-.424.288-.713A.97.97 0 0 1 20 15q.424 0 .712.287.288.288.288.713v3q0 .824-.587 1.413A1.93 1.93 0 0 1 19 21M3 8V5q0-.824.587-1.412A1.93 1.93 0 0 1 5 3h3q.424 0 .713.288Q9 3.575 9 4q0 .424-.287.713A.97.97 0 0 1 8 5H5v3q0 .424-.287.713A.97.97 0 0 1 4 9a.97.97 0 0 1-.712-.287A.97.97 0 0 1 3 8m16 0V5h-3a.97.97 0 0 1-.713-.287A.97.97 0 0 1 15 4q0-.424.287-.712A.97.97 0 0 1 16 3h3q.824 0 1.413.587Q21 4.176 21 5v3q0 .424-.288.713A.97.97 0 0 1 20 9a.97.97 0 0 1-.712-.287A.97.97 0 0 1 19 8m-7 8q-1.65 0-2.825-1.175T8 12t1.175-2.825T12 8t2.825 1.175T16 12t-1.175 2.825T12 16m0-2q.825 0 1.412-.588Q14 12.826 14 12t-.588-1.412A1.93 1.93 0 0 0 12 10q-.825 0-1.412.588A1.93 1.93 0 0 0 10 12q0 .825.588 1.412Q11.175 14 12 14"/>
</svg>
