<svg xmlns="http://www.w3.org/2000/svg" fill="none" viewBox="0 0 24 24">
    <path fill="currentColor" d="M13 23v-6l-2.1-2-1 4.4L3 18l.4-2 4.8 1 1.6-8.1-1.8.7V13H6V8.3l3.95-1.7q.875-.375 1.288-.487Q11.65 6 12 6q.525 0 .975.275T13.7 7l1 1.6q.65 1.05 1.762 1.725T19 11v2q-1.65 0-3.088-.687A7.3 7.3 0 0 1 13.5 10.5l-.6 3 2.1 2V23zm.5-17.5q-.825 0-1.412-.588A1.93 1.93 0 0 1 11.5 3.5q0-.824.588-1.412A1.93 1.93 0 0 1 13.5 1.5q.825 0 1.412.587.588.588.588 1.413 0 .824-.588 1.412A1.93 1.93 0 0 1 13.5 5.5"/>
</svg>
