<svg xmlns="http://www.w3.org/2000/svg" fill="none" viewBox="0 0 24 24">
    <path fill="currentColor" d="M5 21a.97.97 0 0 1-.713-.288A.97.97 0 0 1 4 20v-1a2.9 2.9 0 0 1-2.125-.875A2.9 2.9 0 0 1 1 16v-5q0-1.25.875-2.125A2.9 2.9 0 0 1 4 8V6q0-1.25.875-2.125A2.9 2.9 0 0 1 7 3h10q1.25 0 2.125.875T20 6v2q1.25 0 2.125.875T23 11v5q0 1.25-.875 2.125A2.9 2.9 0 0 1 20 19v1q0 .424-.288.712A.97.97 0 0 1 19 21a.97.97 0 0 1-.712-.288A.97.97 0 0 1 18 20v-1H6v1q0 .424-.287.712A.97.97 0 0 1 5 21m-1-4h16q.424 0 .712-.288A.97.97 0 0 0 21 16v-5a.97.97 0 0 0-.288-.713A.97.97 0 0 0 20 10a.97.97 0 0 0-.712.287A.97.97 0 0 0 19 11v4H5v-4a.97.97 0 0 0-.287-.713A.97.97 0 0 0 4 10a.97.97 0 0 0-.712.287A.97.97 0 0 0 3 11v5q0 .424.288.712Q3.575 17 4 17m3-4h10v-2q0-.675.275-1.225T18 8.8V6a.97.97 0 0 0-.288-.713A.97.97 0 0 0 17 5H7a.97.97 0 0 0-.713.287A.97.97 0 0 0 6 6v2.8q.45.425.725.975A2.7 2.7 0 0 1 7 11z"/>
</svg>
