<svg xmlns="http://www.w3.org/2000/svg" fill="none" viewBox="0 0 24 24">
    <path fill="currentColor" d="M14.275 21.85 9.55 20H4a.97.97 0 0 1-.712-.288A.97.97 0 0 1 3 19v-3q0-2.075 1.463-3.537Q5.925 11 8 11h10.725q.95 0 1.612.65t.663 1.6q0 .776-.475 1.387a2.24 2.24 0 0 1-1.2.813L17 16.125V20q0 .525-.238.95a2.05 2.05 0 0 1-1.512 1.038 1.9 1.9 0 0 1-.975-.138M12.2 17H9.375q-.175 0-.262.1a.5.5 0 0 0-.113.225.34.34 0 0 0 .037.238.36.36 0 0 0 .213.162L15 20v-3zM5 18h2.1a2 2 0 0 1-.1-.625q0-.975.7-1.675a2.29 2.29 0 0 1 1.675-.7h4.075l5.35-1.475a.37.37 0 0 0 .175-.125.21.21 0 0 0 .025-.175.34.34 0 0 0-.087-.162Q18.85 13 18.725 13H8q-1.25 0-2.125.875A2.9 2.9 0 0 0 5 16zm5-8q-1.65 0-2.825-1.175T6 6t1.175-2.825T10 2t2.825 1.175T14 6t-1.175 2.825T10 10m0-2q.825 0 1.412-.588Q12 6.826 12 6q0-.824-.588-1.412A1.93 1.93 0 0 0 10 4q-.825 0-1.412.588A1.93 1.93 0 0 0 8 6q0 .824.588 1.412Q9.175 8 10 8"/>
</svg>
