<svg xmlns="http://www.w3.org/2000/svg" fill="none" viewBox="0 0 24 24">
    <path fill="currentColor" d="M12 23q-2.8 0-5.15-1.275a11.14 11.14 0 0 1-3.85-3.4V21H1v-6h6v2H4.525q1.2 1.8 3.162 2.9Q9.65 21 12 21q1.874 0 3.512-.712a9.2 9.2 0 0 0 2.85-1.925 9.2 9.2 0 0 0 1.926-2.85A8.7 8.7 0 0 0 21 12h2a10.7 10.7 0 0 1-.863 4.275 11.1 11.1 0 0 1-2.362 3.5q-1.5 1.5-3.5 2.363A10.7 10.7 0 0 1 12 23m-.9-4v-1.3q-1.174-.274-1.912-1.012T8.1 14.75l1.65-.65q.3 1.025.938 1.537.637.513 1.462.513.824 0 1.412-.387.588-.388.588-1.213 0-.725-.613-1.175-.612-.45-2.187-1.025-1.475-.525-2.162-1.25-.688-.725-.688-1.9 0-1.025.713-1.862.712-.838 1.937-1.088V5h1.75v1.25q.9.075 1.637.725.738.65 1.013 1.525l-1.6.65a2.2 2.2 0 0 0-.65-.963q-.45-.387-1.25-.387-.875 0-1.338.375-.462.375-.462 1.025t.575 1.025 2.075.875q1.8.65 2.4 1.525t.6 1.925q0 .724-.25 1.275t-.662.938a3.3 3.3 0 0 1-.963.624q-.55.238-1.175.363V19zM1 12q0-2.276.863-4.275a11.1 11.1 0 0 1 2.362-3.5q1.5-1.5 3.5-2.362A10.7 10.7 0 0 1 12 1q2.8 0 5.15 1.275t3.85 3.4V3h2v6h-6V7h2.475q-1.2-1.8-3.163-2.9T12 3q-1.874 0-3.512.712a9.2 9.2 0 0 0-2.85 1.926 9.2 9.2 0 0 0-1.925 2.85A8.7 8.7 0 0 0 3 12z"/>
</svg>
