<svg xmlns="http://www.w3.org/2000/svg" fill="none" viewBox="0 0 24 24">
    <path fill="currentColor" d="M8 18a.97.97 0 0 1-.713-.288A.97.97 0 0 1 7 17q0-.424.287-.712A.97.97 0 0 1 8 16q.424 0 .713.288Q9 16.575 9 17q0 .424-.287.712A.97.97 0 0 1 8 18m4 0a.97.97 0 0 1-.713-.288A.97.97 0 0 1 11 17q0-.424.287-.712A.97.97 0 0 1 12 16q.424 0 .713.288.287.287.287.712 0 .424-.287.712A.97.97 0 0 1 12 18m4 0a.97.97 0 0 1-.713-.288A.97.97 0 0 1 15 17q0-.424.287-.712A.97.97 0 0 1 16 16q.424 0 .712.288.288.287.288.712 0 .424-.288.712A.97.97 0 0 1 16 18M5 14v-2q0-2.65 1.7-4.6T11 5.1V3h2v2.1q2.6.35 4.3 2.3T19 12v2zm2-2h10q0-2.075-1.463-3.537Q14.075 7 12 7 9.925 7 8.463 8.463 7 9.926 7 12m1 9a.97.97 0 0 1-.713-.288A.97.97 0 0 1 7 20q0-.424.287-.712A.97.97 0 0 1 8 19q.424 0 .713.288Q9 19.575 9 20q0 .424-.287.712A.97.97 0 0 1 8 21m4 0a.97.97 0 0 1-.713-.288A.97.97 0 0 1 11 20q0-.424.287-.712A.97.97 0 0 1 12 19q.424 0 .713.288.287.287.287.712 0 .424-.287.712A.97.97 0 0 1 12 21m4 0a.97.97 0 0 1-.713-.288A.97.97 0 0 1 15 20q0-.424.287-.712A.97.97 0 0 1 16 19q.424 0 .712.288.288.287.288.712 0 .424-.288.712A.97.97 0 0 1 16 21"/>
</svg>
