<svg xmlns="http://www.w3.org/2000/svg" fill="none" viewBox="0 0 24 24"><path fill="currentColor" d="M11 18a.968.968 0 0 1-.713-.288A.968.968 0 0 1 10 17c0-.283.096-.52.287-.712A.968.968 0 0 1 11 16h2c.283 0 .52.096.713.288.191.191.287.429.287.712s-.096.52-.287.712A.968.968 0 0 1 13 18h-2Zm-4-5a.967.967 0 0 1-.713-.287A.968.968 0 0 1 6 12c0-.283.096-.52.287-.713A.967.967 0 0 1 7 11h10c.283 0 .52.096.712.287.192.192.288.43.288.713s-.096.52-.288.713A.968.968 0 0 1 17 13H7ZM4 8a.968.968 0 0 1-.712-.287A.968.968 0 0 1 3 7c0-.283.096-.52.288-.713A.968.968 0 0 1 4 6h16c.283 0 .52.096.712.287.192.192.288.43.288.713s-.096.52-.288.713A.968.968 0 0 1 20 8H4Z"/></svg>