<svg xmlns="http://www.w3.org/2000/svg" fill="none" viewBox="0 0 24 24">
    <path fill="currentColor" d="M5 22v-2h6v-4H9q-2.075 0-3.537-1.463Q4 13.075 4 11q0-1.5.825-2.762A4.76 4.76 0 0 1 7.05 6.4a4.85 4.85 0 0 1 1.638-3.137A4.8 4.8 0 0 1 12 2q1.9 0 3.313 1.263A4.85 4.85 0 0 1 16.95 6.4a4.76 4.76 0 0 1 2.225 1.838Q20 9.5 20 11q0 2.075-1.462 3.537Q17.074 16 15 16h-2v4h6v2zm4-8h6q1.25 0 2.125-.875A2.9 2.9 0 0 0 18 11q0-.9-.512-1.65a3 3 0 0 0-1.338-1.1L15.1 7.8l-.15-1.15q-.15-1.125-.987-1.888A2.82 2.82 0 0 0 12 4q-1.125 0-1.963.763A3.02 3.02 0 0 0 9.05 6.65L8.9 7.8l-1.05.45q-.825.35-1.337 1.1Q6 10.1 6 11q0 1.25.875 2.125A2.9 2.9 0 0 0 9 14"/>
</svg>
