<svg xmlns="http://www.w3.org/2000/svg" fill="none" viewBox="0 0 24 24">
    <path fill="currentColor" d="M13.3 20.725q-.15.125-.312.2a.86.86 0 0 1-.363.075 1 1 0 0 1-.4-.087 1.1 1.1 0 0 1-.35-.238q-1.024-1.1-1.512-2.25A6.15 6.15 0 0 1 9.875 16q0-.925.275-1.95t.95-2.65q.575-1.426.8-2.187.225-.764.225-1.413 0-.85-.375-1.587-.375-.738-1.175-1.488-.15-.15-.237-.35a1 1 0 0 1-.088-.4q0-.2.075-.363t.2-.312q.15-.15.338-.225T11.25 3t.375.075.325.2q1.1 1.025 1.638 2.15t.537 2.375q0 .875-.262 1.837-.263.963-.913 2.513-.625 1.5-.85 2.3a5.6 5.6 0 0 0-.225 1.525q0 .875.363 1.688.362.812 1.112 1.637.125.15.2.325t.075.375-.075.387a.9.9 0 0 1-.25.338m4.875 0q-.15.125-.312.2A.86.86 0 0 1 17.5 21a1 1 0 0 1-.4-.087 1.1 1.1 0 0 1-.35-.238q-1.024-1.1-1.512-2.238a6.1 6.1 0 0 1-.488-2.412q0-.925.275-1.975t.95-2.65q.575-1.425.8-2.175t.225-1.4q0-.85-.375-1.612T15.45 4.725a1 1 0 0 1-.225-.337A1 1 0 0 1 15.15 4a1 1 0 0 1 .25-.675q.15-.15.35-.238a1 1 0 0 1 .4-.087q.2 0 .363.075t.312.2q1.1 1.025 1.637 2.15Q19 6.55 19 7.8q0 .875-.262 1.837-.263.963-.913 2.538-.625 1.5-.85 2.3a5.6 5.6 0 0 0-.225 1.5q0 .874.375 1.713.375.837 1.125 1.637a1.07 1.07 0 0 1 .25.675q0 .2-.075.4a.7.7 0 0 1-.25.325m-9.75 0q-.15.125-.312.2A.86.86 0 0 1 7.75 21a1 1 0 0 1-.4-.087 1.1 1.1 0 0 1-.35-.238q-1.024-1.1-1.513-2.238A6.1 6.1 0 0 1 5 16.026q0-.925.275-1.975t.95-2.65q.575-1.425.8-2.175t.225-1.4q0-.85-.375-1.612T5.7 4.725a.9.9 0 0 1-.25-.337A1 1 0 0 1 5.375 4q0-.2.075-.375t.2-.325q.15-.15.337-.225T6.376 3t.375.075.325.2q1.1 1.025 1.638 2.137T9.25 7.8A7.3 7.3 0 0 1 9 9.637q-.25.963-.9 2.513-.625 1.5-.85 2.3a5.6 5.6 0 0 0-.225 1.525q0 .874.362 1.713.363.837 1.113 1.637a1.06 1.06 0 0 1 .25.675q0 .2-.075.4a.7.7 0 0 1-.25.325"/>
</svg>
