<svg xmlns="http://www.w3.org/2000/svg" fill="none" viewBox="0 0 24 24">
    <path fill="currentColor" d="M4 7q0-1.25.875-2.125A2.9 2.9 0 0 1 7 4h10q1.25 0 2.125.875T20 7v2q1.25 0 2.125.875T23 12v5q0 1.25-.875 2.125A2.9 2.9 0 0 1 20 20H4a2.9 2.9 0 0 1-2.125-.875A2.9 2.9 0 0 1 1 17v-5q0-1.25.875-2.125A2.9 2.9 0 0 1 4 9zm2 0v2.8q.45.425.725.975A2.7 2.7 0 0 1 7 12v2h10v-2q0-.675.275-1.225T18 9.8V7a.97.97 0 0 0-.288-.713A.97.97 0 0 0 17 6H7a.97.97 0 0 0-.713.287A.97.97 0 0 0 6 7m13 9H5v-4q0-.2-.075-.387a.96.96 0 0 0-.537-.538A1 1 0 0 0 4 11a.97.97 0 0 0-.712.287A.97.97 0 0 0 3 12v5q0 .424.288.712Q3.575 18 4 18h16q.424 0 .712-.288A.97.97 0 0 0 21 17v-5a.97.97 0 0 0-.288-.713A.97.97 0 0 0 20 11q-.2 0-.387.075a.96.96 0 0 0-.538.538Q19 11.8 19 12z"/>
</svg>
