<svg xmlns="http://www.w3.org/2000/svg" fill="none" viewBox="0 0 24 24">
    <path fill="currentColor" d="M11.1 19h1.75v-1.25q1.25-.225 2.15-.975t.9-2.225q0-1.05-.6-1.925T12.9 11.1q-1.5-.5-2.075-.875T10.25 9.2t.463-1.025T12.05 7.8q.8 0 1.25.388.45.387.65.962l1.6-.65a3.35 3.35 0 0 0-1.013-1.525q-.737-.65-1.637-.725V5h-1.75v1.25q-1.25.275-1.95 1.1T8.5 9.2q0 1.175.688 1.9t2.162 1.25q1.576.575 2.188 1.025t.612 1.175q0 .825-.588 1.212-.587.388-1.412.388t-1.463-.512q-.637-.513-.937-1.538l-1.65.65q.35 1.2 1.088 1.938.737.737 1.912 1.012zm.9 3a9.7 9.7 0 0 1-3.9-.788 10.1 10.1 0 0 1-3.175-2.137q-1.35-1.35-2.137-3.175A9.7 9.7 0 0 1 2 12q0-2.075.788-3.9a10.1 10.1 0 0 1 2.137-3.175q1.35-1.35 3.175-2.137A9.7 9.7 0 0 1 12 2q2.075 0 3.9.788a10.1 10.1 0 0 1 3.175 2.137q1.35 1.35 2.137 3.175A9.7 9.7 0 0 1 22 12a9.7 9.7 0 0 1-.788 3.9 10.1 10.1 0 0 1-2.137 3.175q-1.35 1.35-3.175 2.137A9.7 9.7 0 0 1 12 22m0-2q3.35 0 5.675-2.325T20 12t-2.325-5.675T12 4 6.325 6.325 4 12t2.325 5.675T12 20"/>
</svg>
