<svg xmlns="http://www.w3.org/2000/svg" fill="none" viewBox="0 0 24 24"><path fill="currentColor" d="M19 12c0-1.95-.68-3.604-2.038-4.963C15.604 5.68 13.95 5 12 5V3c1.25 0 2.42.237 3.512.712a9.147 9.147 0 0 1 2.85 1.925 9.149 9.149 0 0 1 1.926 2.85A8.707 8.707 0 0 1 21 12h-2Zm-4 0c0-.833-.292-1.542-.875-2.125A2.893 2.893 0 0 0 12 9V7c1.383 0 2.563.487 3.537 1.463C16.512 9.438 17 10.617 17 12h-2Zm4.95 9c-2.083 0-4.142-.454-6.175-1.363-2.033-.908-3.883-2.195-5.55-3.862-1.667-1.667-2.954-3.517-3.862-5.55C3.454 8.192 3 6.133 3 4.05c0-.3.1-.55.3-.75.2-.2.45-.3.75-.3H8.1a.93.93 0 0 1 .625.237.914.914 0 0 1 .325.563l.65 3.5c.033.267.025.492-.025.675-.05.183-.142.342-.275.475L6.975 10.9c.333.617.73 1.213 1.188 1.787.458.575.962 1.13 1.512 1.663.517.517 1.058.996 1.625 1.438.567.441 1.167.845 1.8 1.212l2.35-2.35a1.4 1.4 0 0 1 .588-.338 1.61 1.61 0 0 1 .712-.062l3.45.7c.233.067.425.188.575.363A.88.88 0 0 1 21 15.9v4.05c0 .3-.1.55-.3.75-.2.2-.45.3-.75.3ZM6.025 9l1.65-1.65L7.25 5H5.025c.083.683.2 1.358.35 2.025.15.667.367 1.325.65 1.975Zm8.95 8.95c.65.283 1.313.508 1.987.675.675.167 1.355.275 2.038.325v-2.2l-2.35-.475-1.675 1.675Z"/></svg>