<svg xmlns="http://www.w3.org/2000/svg" fill="none" viewBox="0 0 24 24">
    <path fill="currentColor" d="M12 20q-.9 0-1.425.5T8.65 21t-1.925-.5T5.3 20q-.725 0-1.1.337-.375.339-1.175.538a.75.75 0 0 1-.712-.175A.9.9 0 0 1 2 20q0-.425.3-.738.3-.312.675-.512.425-.224.9-.488Q4.351 18 5.3 18q1.4 0 1.925.5t1.425.5 1.425-.5T12 18t1.925.5 1.425.5 1.425-.5T18.7 18q.95 0 1.425.262.476.263.9.488.375.2.675.512.3.313.3.738a.9.9 0 0 1-.312.7.75.75 0 0 1-.713.175q-.8-.2-1.175-.538Q19.425 20 18.7 20q-.9 0-1.425.5t-1.925.5-1.925-.5T12 20m0-4.5q-.95 0-1.412.5-.463.5-1.938.5T6.687 16 5.3 15.5q-.725 0-1.1.338t-1.175.537a.75.75 0 0 1-.712-.175.9.9 0 0 1-.313-.7q0-.425.3-.738.3-.312.675-.512.425-.225.9-.488.476-.262 1.425-.262 1.4 0 1.938.5.537.5 1.412.5.9 0 1.425-.5T12 13.5t1.925.5 1.425.5 1.425-.5 1.925-.5q.95 0 1.425.262.476.263.9.488.375.2.675.512.3.313.3.738a.9.9 0 0 1-.312.7.75.75 0 0 1-.713.175q-.8-.2-1.175-.537-.375-.338-1.1-.338-.9 0-1.387.5-.488.5-1.963.5-1.425 0-1.937-.5-.513-.5-1.413-.5m-5.1-4.1 3.325-3.325-1-1a5.7 5.7 0 0 0-1.287-.987A4.5 4.5 0 0 0 6.425 5.6a1.6 1.6 0 0 1-.862-.475A1.22 1.22 0 0 1 5.2 4.25q0-.525.375-.888.375-.361.875-.312 1.35.124 2.325.563Q9.75 4.05 10.7 5l6.4 6.4q-.425.275-.825.438a2.4 2.4 0 0 1-.925.162q-.9 0-1.425-.5T12 11t-1.925.5-1.425.5q-.525 0-.925-.162A5 5 0 0 1 6.9 11.4M16.7 3q1.05 0 1.775.737.725.738.725 1.763 0 1.05-.725 1.775T16.7 8t-1.775-.725T14.2 5.5q0-1.024.725-1.763A2.4 2.4 0 0 1 16.7 3"/>
</svg>
