<svg xmlns="http://www.w3.org/2000/svg" fill="none" viewBox="0 0 24 24">
    <path fill="currentColor" d="M8 23q-.824 0-1.412-.587A1.93 1.93 0 0 1 6 21V3q0-.824.588-1.412A1.93 1.93 0 0 1 8 1h8q.824 0 1.413.587Q18 2.176 18 3v18q0 .824-.587 1.413A1.93 1.93 0 0 1 16 23zm0-2h8V3H8zm4-11q1.25 0 2.125-.875A2.9 2.9 0 0 0 15 7q0-1.25-.875-2.125A2.9 2.9 0 0 0 12 4q-1.25 0-2.125.875A2.9 2.9 0 0 0 9 7q0 1.25.875 2.125A2.9 2.9 0 0 0 12 10m0-2a.97.97 0 0 1-.713-.287A.97.97 0 0 1 11 7q0-.424.287-.713A.97.97 0 0 1 12 6q.424 0 .713.287Q13 6.576 13 7q0 .424-.287.713A.97.97 0 0 1 12 8m-2 6q.424 0 .713-.287A.97.97 0 0 0 11 13a.97.97 0 0 0-.287-.713A.97.97 0 0 0 10 12a.97.97 0 0 0-.713.287A.97.97 0 0 0 9 13q0 .424.287.713Q9.576 14 10 14m4 0q.424 0 .713-.287A.97.97 0 0 0 15 13a.97.97 0 0 0-.287-.713A.97.97 0 0 0 14 12a.97.97 0 0 0-.713.287A.97.97 0 0 0 13 13q0 .424.287.713.288.287.713.287m-4 3q.424 0 .713-.288A.97.97 0 0 0 11 16a.97.97 0 0 0-.287-.713A.97.97 0 0 0 10 15a.97.97 0 0 0-.713.287A.97.97 0 0 0 9 16q0 .424.287.712Q9.576 17 10 17m4 0q.424 0 .713-.288A.97.97 0 0 0 15 16a.97.97 0 0 0-.287-.713A.97.97 0 0 0 14 15a.97.97 0 0 0-.713.287A.97.97 0 0 0 13 16q0 .424.287.712.288.288.713.288m-4 3q.424 0 .713-.288A.97.97 0 0 0 11 19a.97.97 0 0 0-.287-.712A.97.97 0 0 0 10 18a.97.97 0 0 0-.713.288A.97.97 0 0 0 9 19q0 .424.287.712Q9.576 20 10 20m4 0q.424 0 .713-.288A.97.97 0 0 0 15 19a.97.97 0 0 0-.287-.712A.97.97 0 0 0 14 18a.97.97 0 0 0-.713.288A.97.97 0 0 0 13 19q0 .424.287.712.288.288.713.288"/>
</svg>
