<svg xmlns="http://www.w3.org/2000/svg" fill="none" viewBox="0 0 24 24">
    <path fill="currentColor" d="M12 18q2.5 0 4.25-1.75T18 12t-1.75-4.25T12 6 7.75 7.75 6 12t1.75 4.25T12 18m0-2a3.8 3.8 0 0 1-1.4-.262A4.2 4.2 0 0 1 9.375 15h5.25a4.2 4.2 0 0 1-1.225.738A3.8 3.8 0 0 1 12 16m-3.45-2a4 4 0 0 1-.5-1.5h7.9a4 4 0 0 1-.5 1.5zm-.5-2.5a4 4 0 0 1 .5-1.5h6.9a4 4 0 0 1 .5 1.5zM9.375 9a4.2 4.2 0 0 1 1.225-.738A3.8 3.8 0 0 1 12 8q.725 0 1.4.262T14.625 9zM5 21q-.824 0-1.412-.587A1.93 1.93 0 0 1 3 19V5q0-.824.587-1.412A1.93 1.93 0 0 1 5 3h14q.824 0 1.413.587Q21 4.176 21 5v14q0 .824-.587 1.413A1.93 1.93 0 0 1 19 21zm0-2h14V5H5z"/>
</svg>
