<svg xmlns="http://www.w3.org/2000/svg" fill="none" viewBox="0 0 24 24">
    <path fill="currentColor" d="M4.925 19.075q-1.35-1.376-2.137-3.187A9.65 9.65 0 0 1 2 12q0-2.1.788-3.912a10.1 10.1 0 0 1 2.137-3.163L6.35 6.35A8.1 8.1 0 0 0 4.625 8.9Q4 10.35 4 12a7.8 7.8 0 0 0 2.35 5.65zM7.75 16.25a6.4 6.4 0 0 1-1.275-1.912A5.8 5.8 0 0 1 6 12q0-1.275.475-2.362A6.1 6.1 0 0 1 7.75 7.75l1.425 1.425a4.1 4.1 0 0 0-.863 1.275Q8 11.175 8 12t.313 1.55q.312.724.862 1.275zM12 14q-.825 0-1.412-.588A1.93 1.93 0 0 1 10 12q0-.825.588-1.412A1.93 1.93 0 0 1 12 10q.825 0 1.412.588Q14 11.175 14 12t-.588 1.412A1.93 1.93 0 0 1 12 14m4.25 2.25-1.425-1.425q.55-.55.863-1.275T16 12t-.312-1.55a4.1 4.1 0 0 0-.863-1.275L16.25 7.75a6.1 6.1 0 0 1 1.275 1.888Q18 10.725 18 12q0 1.25-.475 2.338a6.4 6.4 0 0 1-1.275 1.912m2.825 2.825L17.65 17.65a8.1 8.1 0 0 0 1.725-2.55Q20 13.65 20 12a7.8 7.8 0 0 0-2.35-5.65l1.425-1.425q1.35 1.35 2.137 3.163Q22 9.9 22 12q0 2.076-.788 3.887a10.5 10.5 0 0 1-2.137 3.188"/>
</svg>
