<svg xmlns="http://www.w3.org/2000/svg" fill="none" viewBox="0 0 24 24"><path fill="currentColor" d="M13 11.6V8a.967.967 0 0 0-.287-.713A.968.968 0 0 0 12 7a.968.968 0 0 0-.713.287A.967.967 0 0 0 11 8v3.975c0 .133.025.263.075.388.05.125.125.237.225.337l3.3 3.3a.948.948 0 0 0 .7.275A.948.948 0 0 0 16 16a.948.948 0 0 0 .275-.7.948.948 0 0 0-.275-.7l-3-3ZM12 22a9.738 9.738 0 0 1-3.9-.788 10.099 10.099 0 0 1-3.175-2.137c-.9-.9-1.612-1.958-2.137-3.175A9.738 9.738 0 0 1 2 12c0-1.383.263-2.683.788-3.9a10.099 10.099 0 0 1 2.137-3.175c.9-.9 1.958-1.612 3.175-2.137A9.738 9.738 0 0 1 12 2c1.383 0 2.683.263 3.9.788a10.098 10.098 0 0 1 3.175 2.137c.9.9 1.613 1.958 2.137 3.175A9.738 9.738 0 0 1 22 12a9.738 9.738 0 0 1-.788 3.9 10.098 10.098 0 0 1-2.137 3.175c-.9.9-1.958 1.613-3.175 2.137A9.738 9.738 0 0 1 12 22Zm0-2c2.217 0 4.104-.78 5.663-2.337C19.22 16.104 20 14.217 20 12s-.78-4.104-2.337-5.662C16.104 4.779 14.217 4 12 4s-4.104.78-5.662 2.338C4.779 7.896 4 9.783 4 12s.78 4.104 2.338 5.663C7.896 19.22 9.783 20 12 20Z"/></svg>