<svg xmlns="http://www.w3.org/2000/svg" fill="none" viewBox="0 0 24 24">
    <path fill="currentColor" d="m10.9 14.9-1.625 7.3a.97.97 0 0 1-.363.575Q8.625 23 8.25 23a.97.97 0 0 1-.8-.375.98.98 0 0 1-.2-.85L9.8 8.9 8 9.6V12q0 .424-.287.713A.97.97 0 0 1 7 13a.97.97 0 0 1-.713-.287A.97.97 0 0 1 6 12V8.95q0-.3.162-.537.163-.239.438-.363l4.45-1.9q.35-.15.737-.175.388-.025.738.1t.662.35T13.7 7l1 1.6q.325.5.763.95.437.45.987.775.35.2.775.363t.85.237q.4.075.663.362.262.288.262.713t-.3.7a.87.87 0 0 1-.725.225 6.6 6.6 0 0 1-2.513-.875 8.1 8.1 0 0 1-1.937-1.625L12.9 13.5l1.8 1.7q.15.15.225.338.075.187.075.387V22q0 .424-.287.712A.97.97 0 0 1 14 23a.97.97 0 0 1-.713-.288A.97.97 0 0 1 13 22v-5.5zm2.6-9.4q-.825 0-1.412-.588A1.93 1.93 0 0 1 11.5 3.5q0-.824.588-1.412A1.93 1.93 0 0 1 13.5 1.5q.825 0 1.412.587.588.588.588 1.413 0 .824-.588 1.412A1.93 1.93 0 0 1 13.5 5.5"/>
</svg>
