<svg xmlns="http://www.w3.org/2000/svg" fill="none" viewBox="0 0 24 24">
    <path fill="currentColor" d="m20.65 9.375-1.4-1.4L20 7.2 16.8 4l-.775.75L14.6 3.325l.75-.775q.575-.574 1.425-.563.85.014 1.425.588L21.425 5.8Q22 6.375 22 7.212a1.92 1.92 0 0 1-.575 1.413zM8.65 21.4a1.92 1.92 0 0 1-1.413.575 1.92 1.92 0 0 1-1.412-.575L2.6 18.175a1.92 1.92 0 0 1-.575-1.413q0-.837.575-1.412l.75-.75 1.425 1.425-.775.75L7.225 20l.75-.775L9.4 20.65zm9.925-8.4L20 11.575 12.425 4 11 5.425zm-7 7L13 18.55 5.45 11 4 12.425zm-.15-5.85 2.75-2.725-1.6-1.6-2.725 2.75zM13 21.4q-.575.575-1.425.575T10.15 21.4L2.6 13.85q-.575-.575-.575-1.425T2.6 11l1.425-1.425A1.92 1.92 0 0 1 5.437 9q.838 0 1.413.575l1.575 1.575 2.75-2.75L9.6 6.85q-.575-.574-.575-1.425 0-.85.575-1.425l1.425-1.425A1.92 1.92 0 0 1 12.437 2q.838 0 1.413.575l7.575 7.575q.575.575.575 1.412a1.92 1.92 0 0 1-.575 1.413L20 14.4q-.574.575-1.425.575-.85 0-1.425-.575l-1.55-1.575-2.75 2.75 1.575 1.575q.575.575.575 1.412a1.92 1.92 0 0 1-.575 1.413z"/>
</svg>
