<svg xmlns="http://www.w3.org/2000/svg" fill="none" viewBox="0 0 24 24"><path fill="currentColor" d="M17 22c-1.033 0-1.88-.258-2.537-.775-.659-.517-1.163-1.275-1.513-2.275-.283-.833-.554-1.417-.813-1.75-.258-.333-.854-.867-1.787-1.6-1.033-.833-1.85-1.775-2.45-2.825C7.3 11.725 7 10.467 7 9c0-1.983.67-3.646 2.012-4.988C10.354 2.671 12.017 2 14 2c1.983 0 3.646.67 4.988 2.012C20.329 5.354 21 7.017 21 9h-2c0-1.417-.48-2.604-1.438-3.563C16.605 4.48 15.418 4 14 4c-1.417 0-2.604.48-3.563 1.437C9.48 6.396 9 7.583 9 9c0 1.133.225 2.1.675 2.9.45.8 1.092 1.517 1.925 2.15.867.633 1.542 1.25 2.025 1.85.483.6.842 1.25 1.075 1.95.233.733.513 1.275.838 1.625.325.35.812.525 1.462.525.55 0 1.02-.196 1.413-.587.391-.392.587-.863.587-1.413h2c0 1.1-.392 2.042-1.175 2.825C19.042 21.608 18.1 22 17 22ZM6.2 16.75c-.983-1-1.763-2.162-2.338-3.488C3.287 11.938 3 10.517 3 9c0-1.533.288-2.967.862-4.3A11.351 11.351 0 0 1 6.2 1.2l1.45 1.4A9.108 9.108 0 0 0 5.7 5.487 8.841 8.841 0 0 0 5 9a8.69 8.69 0 0 0 .7 3.475 9.149 9.149 0 0 0 1.95 2.875l-1.45 1.4ZM14 11.5c-.7 0-1.292-.246-1.775-.738A2.426 2.426 0 0 1 11.5 9c0-.7.242-1.292.725-1.775C12.708 6.742 13.3 6.5 14 6.5s1.292.242 1.775.725c.483.483.725 1.075.725 1.775 0 .683-.242 1.27-.725 1.762A2.393 2.393 0 0 1 14 11.5Z"/></svg>