<svg xmlns="http://www.w3.org/2000/svg" fill="none" viewBox="0 0 24 24">
    <path fill="currentColor" d="M4 22q-.824 0-1.412-.587A1.93 1.93 0 0 1 2 20V8q0-.824.587-1.412A1.93 1.93 0 0 1 4 6h4l4-4 4 4h4q.824 0 1.413.588Q22 7.175 22 8v12q0 .824-.587 1.413A1.93 1.93 0 0 1 20 22zm0-2h16V8H4zm2-2h12l-3.75-5-3 4L9 14zm11.5-5q.625 0 1.063-.437Q19 12.125 19 11.5t-.437-1.062A1.45 1.45 0 0 0 17.5 10q-.625 0-1.062.438A1.45 1.45 0 0 0 16 11.5q0 .624.438 1.063.437.437 1.062.437m-7.4-7h3.8L12 4.1z"/>
</svg>
