<svg xmlns="http://www.w3.org/2000/svg" fill="none" viewBox="0 0 24 24">
    <path fill="currentColor" d="M12 9a3.37 3.37 0 0 1-2.475-1.025A3.37 3.37 0 0 1 8.5 5.5q0-1.45 1.025-2.475A3.37 3.37 0 0 1 12 2q1.45 0 2.475 1.025A3.37 3.37 0 0 1 15.5 5.5q0 1.45-1.025 2.475A3.37 3.37 0 0 1 12 9m0-2q.624 0 1.063-.437.437-.438.437-1.063t-.437-1.062A1.45 1.45 0 0 0 12 4q-.625 0-1.062.438A1.45 1.45 0 0 0 10.5 5.5q0 .624.438 1.063Q11.375 7 12 7m-1.425 13.575L6 16a3.3 3.3 0 0 1-.75-1.125A3.7 3.7 0 0 1 5 13.5q0-1.474 1.013-2.488Q7.026 10 8.5 10q.725 0 1.338.275.612.275 1.112.775L12 12.1l1.05-1.05a3.7 3.7 0 0 1 1.112-.775A3.2 3.2 0 0 1 15.5 10q1.475 0 2.488 1.012T19 13.5q0 .75-.25 1.375A3.3 3.3 0 0 1 18 16l-4.575 4.575q-.3.3-.675.45t-.75.15-.75-.15-.675-.45M12 19.15l4.55-4.55q.225-.225.337-.512A1.6 1.6 0 0 0 17 13.5q0-.6-.425-1.05T15.5 12q-.3 0-.537.088a1.3 1.3 0 0 0-.463.312L12 14.9l-2.5-2.5q-.15-.15-.387-.275T8.5 12q-.65 0-1.075.45T7 13.5q0 .3.125.563t.325.487z"/>
</svg>