<svg xmlns="http://www.w3.org/2000/svg" fill="none" viewBox="0 0 24 24">
    <path fill="currentColor" d="M6.8 20q-.75 0-1.275-.525A1.74 1.74 0 0 1 5 18.2q0-.526.3-.988t.8-.662L10 15v-2.25q-1.35 1.575-3.137 2.412Q5.075 16 3 16v-2q1.7 0 3.088-.7 1.387-.7 2.512-2l1.35-1.6q.3-.35.7-.525T11.5 9h1q.45 0 .85.175t.7.525l1.35 1.6q1.125 1.3 2.513 2T21 14v2q-2.074 0-3.863-.838Q15.35 14.326 14 12.75V15l3.9 1.55q.5.2.8.662.3.463.3.988 0 .75-.525 1.275T17.2 20H10v-.5q0-.65.425-1.075T11.5 18h3a.5.5 0 0 0 .363-.137A.5.5 0 0 0 15 17.5a.5.5 0 0 0-.137-.363A.5.5 0 0 0 14.5 17h-3q-1.05 0-1.775.725T9 19.5v.5zM12 8q-.825 0-1.412-.588A1.93 1.93 0 0 1 10 6q0-.824.588-1.412A1.93 1.93 0 0 1 12 4q.825 0 1.412.588Q14 5.175 14 6q0 .824-.588 1.412A1.93 1.93 0 0 1 12 8"/>
</svg>
