<svg
    xmlns="http://www.w3.org/2000/svg"
    fill="none"
    viewBox="0 0 64 64"
>
    <g fill="#1E003C" clip-path="url(#a)">
        <path d="M27.808 26.059c.025-2.324 1.905-4.216 4.191-4.216 2.285 0 4.165 1.892 4.191 4.216.016 1.375-1.282 4.131-4.192 7.368-2.909-3.236-4.207-5.993-4.19-7.368Z" />
        <path
            fill-rule="evenodd"
            d="M2 0a2 2 0 0 0-2 2v60a2 2 0 0 0 2 2h60a2 2 0 0 0 2-2V2a2 2 0 0 0-2-2H2Zm41.12 44.776 1.462.557L52 18.667h-2.965L42.69 41.492c-2.952-1.364-6-3.475-8.69-6.018 1.917-2.118 5.083-6.12 5.046-9.447a7.137 7.137 0 0 0-2.074-4.974A6.962 6.962 0 0 0 32 18.983c-1.88 0-3.644.736-4.971 2.07a7.126 7.126 0 0 0-2.075 4.974c-.036 3.326 3.129 7.33 5.046 9.447-2.69 2.542-5.739 4.654-8.69 6.018l-6.345-22.824H12l7.415 26.665 1.464-.557c3.737-1.425 7.71-4.03 11.12-7.262 3.413 3.231 7.385 5.837 11.12 7.262Z"
            clip-rule="evenodd"
        />
    </g>
    <defs>
        <clipPath id="a">
            <path fill="#fff" d="M0 0h64v64H0z" />
        </clipPath>
    </defs>
</svg>