<svg xmlns="http://www.w3.org/2000/svg" fill="none" viewBox="0 0 314 64"><path fill="#090909" d="M33.327 64C13.087 64 0 51.781 0 32.868 0 13.955 14.293 0 33.242 0c18.95 0 32.869 13.594 32.869 32.314S52.939 63.988 33.339 63.988l-.012.012Zm-.085-62.83c-18.273 0-32.06 13.63-32.06 31.698 0 18.069 12.617 29.962 32.157 29.962 19.54 0 31.602-12.267 31.602-30.516 0-18.25-13.34-31.144-31.699-31.144Zm.06 60.273h-.156c-14.474-.097-25.39-12.375-25.39-28.575 0-14.462 7.948-30.033 25.39-30.033 8.07 0 14.727 3.268 19.25 9.456 3.848 5.271 5.96 12.375 5.96 20.035 0 8.745-3.125 16.862-8.565 22.266-4.523 4.487-10.216 6.863-16.476 6.863l-.012-.012Zm-.156-57.45c-16.645 0-24.22 14.968-24.22 28.875 0 15.536 10.41 27.32 24.22 27.405 5.995 0 11.47-2.22 15.813-6.514 5.223-5.198 8.226-13.002 8.226-21.433 0-14.1-7.43-28.321-24.04-28.321v-.013Z"/><path fill="#090909" d="M38.007 50.961h-6.78a.58.58 0 0 1-.578-.579V19.818l-4.825 1.17a.563.563 0 0 1-.603-.218l-1.35-1.773c-.11-.132-.146-.313-.11-.482a.547.547 0 0 1 .302-.386l9.734-5.006a.606.606 0 0 1 .326-.06l3.932.434a.577.577 0 0 1 .519.58v36.317a.58.58 0 0 1-.58.58l.013-.013Zm-6.2-1.17h5.609V14.583l-3.233-.35-8.962 4.607.7.917 5.174-1.254a.6.6 0 0 1 .495.108.56.56 0 0 1 .217.459v30.733-.012ZM311.531 50.048l.64-1.829c-2.661.484-17.24.32-17.24.32l-.057-16.09c5.111-.107 9.42-.05 12.51.213v-1.993c-3.083.377-9.792.32-12.453.32V15.283s12.136-.057 14.692.27l-.641-1.722h-17.987v36.21h20.543l-.007.007Zm-25.942-7.266s-21.768-25.934-23.95-28.944h-2.288l.317 2.747c.056 7.8 0 30.56 0 33.463h1.703v-30.24l-.373-1.18s22.781 27.82 26.611 32.068c-.267-10.327-.056-26.524-.056-36.858h-1.704c.106 5.594.106 26.688.106 29.862l-.373-.91.007-.008Zm-47.893 5.765c-8.011-.05-14.157-6.84-14.157-16.148 0-8.05 4.372-16.995 14.157-16.995 9.786 0 14.052 8.625 14.052 16.674 0 9.31-5.984 16.518-14.052 16.469Zm18.473-16.469c0-9.942-7.237-18.304-18.423-18.304-11.187 0-18.628 8.682-18.628 18.625 0 11.465 8.272 17.62 18.684 17.62s18.367-6.525 18.367-17.94ZM180.082 15.56c2.182 0 8.3-.107 11.228.59 7.61 1.723 12.51 9.31 12.243 16.733-.373 10.063-6.491 13.073-9.849 14.418-3.619 1.509-12.559 1.025-13.573.648 0-10.334-.056-22.062-.056-32.389m-1.605 34.488c2.344 0 8.25.107 11.439-.27 4.098-.427 15.911-3.117 15.911-18.56 0-11.893-10.11-16.412-14.904-17.06-2.02-.27-4.843-.32-7.772-.32h-8.884c.105 5.594 0 33.036 0 36.21h4.21Zm-9.603-7.266s-21.767-25.934-23.95-28.944h-2.288l.317 2.747c.057 7.8 0 30.56 0 33.463h1.704v-30.24l-.373-1.18s22.781 27.82 26.611 32.068c-.268-10.327-.05-26.524-.05-36.858h-1.703c.105 5.594.105 26.688.105 29.862l-.373-.91v-.008Zm-52.327-6.996 6.596-16.788v.647s3.619 9.039 6.441 16.141H116.54Zm23.041 14.262c-2.182-5.11-8.94-21.25-13.573-32.93-.584-1.451-1.175-3.344-1.175-3.344h-.824l-14.812 36.274h1.542l5.216-12.696h14.263c1.704 4.306 3.569 9.202 4.787 12.696h4.576Zm-43.366 0V13.624l-1.865-.32-8.94 4.683.372.427 6.28-1.559v33.2h4.153v-.007Z"/></svg>