<svg class="logo" width="120" height="26" fill="none" xmlns="http://www.w3.org/2000/svg"><path d="M12.736 25.23C5.001 25.23 0 20.56 0 13.331S5.462.77 12.704.77c7.242 0 12.561 5.195 12.561 12.349s-5.033 12.105-12.524 12.105l-.005.004Zm-.032-24.012C5.721 1.218.452 6.427.452 13.332c0 6.905 4.821 11.45 12.289 11.45s12.077-4.688 12.077-11.662c0-6.974-5.098-11.902-12.114-11.902Zm.023 23.034h-.06c-5.531-.037-9.703-4.73-9.703-10.92 0-5.527 3.038-11.478 9.703-11.478 3.084 0 5.629 1.25 7.357 3.614 1.47 2.014 2.277 4.73 2.277 7.656 0 3.342-1.194 6.445-3.272 8.51-1.73 1.715-3.905 2.623-6.297 2.623l-.005-.005Zm-.06-21.955c-6.361 0-9.256 5.72-9.256 11.035 0 5.937 3.978 10.44 9.256 10.473 2.291 0 4.384-.848 6.043-2.49 1.996-1.986 3.144-4.968 3.144-8.19 0-5.39-2.84-10.824-9.187-10.824v-.004Z" fill="#fff"/><path d="M14.525 20.246h-2.59a.221.221 0 0 1-.222-.221V8.345l-1.844.446a.215.215 0 0 1-.23-.083l-.517-.677c-.041-.05-.055-.12-.041-.185a.209.209 0 0 1 .115-.147l3.72-1.913a.231.231 0 0 1 .124-.023l1.503.166a.22.22 0 0 1 .199.221v13.88a.221.221 0 0 1-.222.22l.005-.004Zm-2.37-.447H14.3V6.344l-1.235-.134-3.425 1.76.267.351 1.977-.48a.23.23 0 0 1 .19.042.214.214 0 0 1 .082.175v11.746-.005ZM119.056 19.898l.245-.7c-1.017.186-6.588.123-6.588.123l-.022-6.15c1.953-.04 3.6-.019 4.781.082v-.761c-1.179.144-3.743.122-4.759.122V6.61s4.638-.021 5.614.104l-.244-.659h-6.874v13.839h7.85l-.003.003Zm-9.914-2.777S100.824 7.21 99.99 6.059h-.875l.121 1.05c.022 2.98 0 11.679 0 12.789h.651V8.34l-.142-.451s8.706 10.631 10.169 12.255c-.102-3.946-.021-10.137-.021-14.086h-.651c.04 2.138.04 10.2.04 11.412l-.142-.348.002-.002ZM90.84 19.324c-3.062-.02-5.41-2.614-5.41-6.172 0-3.076 1.67-6.494 5.41-6.494s5.37 3.296 5.37 6.372c0 3.557-2.287 6.313-5.37 6.294Zm7.06-6.294c0-3.8-2.767-6.995-7.042-6.995s-7.118 3.318-7.118 7.117c0 4.382 3.16 6.735 7.14 6.735 3.979 0 7.02-2.494 7.02-6.857ZM68.82 6.717c.834 0 3.172-.04 4.291.226 2.909.658 4.781 3.558 4.679 6.394-.143 3.846-2.48 4.997-3.764 5.51-1.383.577-4.8.392-5.187.248 0-3.949-.022-8.431-.022-12.378m-.613 13.18c.896 0 3.153.041 4.372-.103 1.566-.163 6.08-1.191 6.08-7.093 0-4.545-3.863-6.272-5.695-6.52-.772-.103-1.851-.122-2.97-.122h-3.396c.04 2.138 0 12.625 0 13.838h1.609Zm-3.67-2.776S56.217 7.21 55.383 6.059h-.875l.121 1.05c.022 2.98 0 11.679 0 12.789h.651V8.34l-.142-.451s8.706 10.631 10.17 12.255c-.103-3.946-.02-10.137-.02-14.086h-.65c.04 2.138.04 10.2.04 11.412l-.143-.348v-.002Zm-19.997-2.674 2.52-6.416v.248s1.383 3.454 2.462 6.168h-4.982Zm8.805 5.45c-.834-1.952-3.417-8.12-5.187-12.584-.223-.555-.45-1.278-.45-1.278h-.314l-5.66 13.863h.589l1.993-4.853h5.451a139.113 139.113 0 0 1 1.83 4.853h1.748Zm-16.573 0V5.978l-.713-.122-3.416 1.79.142.163 2.4-.596V19.9h1.587v-.002Z" fill="#fff"/></svg>