<svg xmlns="http://www.w3.org/2000/svg" fill="none" style="translate:none;rotate:none;scale:none;transform:translate(0,0);opacity:1;visibility:inherit" viewBox="0 0 482 469">
  <path fill="url(#a)" d="M242.979 469C95.415 469 0 379.46 0 240.864S104.209 0 242.363 0 482 99.616 482 236.798c0 137.182-96.031 232.114-238.933 232.114l-.088.088Zm-.616-460.426c-133.229 0-233.745 99.881-233.745 232.29s91.986 219.562 234.449 219.562c142.463 0 230.403-89.893 230.403-223.628 0-133.735-97.262-228.224-231.107-228.224Zm.44 441.687h-1.143c-105.529-.707-185.114-90.688-185.114-209.397 0-105.98 57.952-220.092 185.114-220.092 58.832 0 107.375 23.954 140.352 69.298 28.053 38.627 43.442 90.689 43.442 146.817 0 64.083-22.776 123.569-62.437 163.168-32.978 32.882-74.485 50.295-120.126 50.295l-.088-.089ZM241.66 29.257c-121.358 0-176.584 109.693-176.584 211.607 0 113.847 75.892 200.205 176.584 200.823 43.706 0 83.631-16.264 115.289-47.731 38.078-38.096 59.975-95.284 59.975-157.069 0-103.329-54.171-207.541-175.264-207.541v-.089Z" opacity=".05"/>
  <defs>
    <linearGradient id="a" x1="444.844" x2="32.293" y1="87.808" y2="321.635" gradientUnits="userSpaceOnUse">
      <stop offset="0" stop-color="#B85A1D"/>
      <stop offset=".433" stop-color="#B85A1D" stop-opacity=".23"/>
      <stop offset=".76" stop-color="#B85A1D" stop-opacity="0"/>
      <stop offset="1" stop-color="#B85A1D" stop-opacity="0"/>
    </linearGradient>
  </defs>
</svg>