<svg xmlns="http://www.w3.org/2000/svg" fill="none" viewBox="0 0 610 689"><path fill="#fff" d="M480.412 925C188.652 925 0 748.403 0 475.052S206.04 0 479.195 0 953 196.471 953 467.033c0 270.561-189.87 457.793-472.414 457.793l-.174.174Zm-1.217-908.09c-263.418 0-462.156 196.994-462.156 458.142S198.911 908.09 480.587 908.09s455.548-177.295 455.548-441.057c0-263.763-192.304-450.123-456.939-450.123Zm.869 871.132h-2.26C269.156 886.647 111.8 709.178 111.8 475.052c0-209.023 114.583-434.084 366.004-434.084 116.321 0 212.3 47.243 277.502 136.675 55.466 76.183 85.893 178.864 85.893 289.564 0 126.39-45.033 243.715-123.45 321.815-65.202 64.851-147.27 99.194-237.511 99.194l-.174-.174Zm-2.26-830.339c-239.945 0-349.138 216.345-349.138 417.349 0 224.538 150.053 394.859 349.138 396.08 86.415 0 165.354-32.077 227.948-94.139 75.287-75.137 118.582-187.929 118.582-309.786 0-203.793-107.106-409.33-346.53-409.33v-.174Z"/></svg>