<svg xmlns="http://www.w3.org/2000/svg" fill="none" viewBox="0 0 24 24"><path fill="currentColor" d="M8.773 13.013a1.774 1.774 0 1 1-3.547 0 1.774 1.774 0 0 1 3.547 0Zm8.223-1.773a1.773 1.773 0 1 0-.002 3.546 1.773 1.773 0 0 0 .003-3.546h-.001Zm5 1.773a5 5 0 0 1-8.396 3.668L12 18.42l-1.601-1.742A4.998 4.998 0 1 1 3.635 9.32L2 7.54h3.633a11.324 11.324 0 0 1 12.743 0H22l-1.635 1.78a4.985 4.985 0 0 1 1.63 3.693Zm-11.613 0a3.382 3.382 0 1 0-6.764 0 3.382 3.382 0 0 0 6.764 0Zm5.37-5.049a9.76 9.76 0 0 0-7.507 0C10.381 8.781 12 10.69 12 12.916c0-2.226 1.618-4.135 3.753-4.952Zm4.625 5.05a3.382 3.382 0 1 0-6.764 0 3.382 3.382 0 0 0 6.765 0Z"/></svg>